<svg enable-background="new 0 0 471 85.31" viewBox="0 0 471 85.31" xmlns="http://www.w3.org/2000/svg"><g stroke-miterlimit="10"><path d="m63.91 71.84h-31.77c-7.59 0-13.75-6.16-13.75-13.75v-31.77c0-7.59 6.16-13.75 13.75-13.75h31.77c7.59 0 13.75 6.16 13.75 13.75v31.77c-.01 7.59-6.16 13.75-13.75 13.75z" fill="none" stroke="#ffd5b0" stroke-width="5"/><path d="m30.35 0c6.94 6.94 6.94 18.2 0 25.14h-25.14c-6.95-6.94-6.95-18.2 0-25.14z" fill="#ef966a" stroke="#fff" stroke-width="2"/><path d="m30.96 59.27c6.94 6.94 6.94 18.2 0 25.14h-25.14c-6.94-6.94-6.94-18.2 0-25.14z" fill="#ef966a" stroke="#fff" stroke-width="2"/><path d="m30.96 34.12c6.94 6.94 6.94 18.2 0 25.14h-25.14c-6.94-6.94-6.94-18.2 0-25.14z" fill="#ef966a" stroke="#fff" stroke-width="2"/><path d="m90.23 60.16c6.94 6.94 6.94 18.2 0 25.14h-25.15c-6.94-6.94-6.94-18.2 0-25.14z" fill="#ef966a" stroke="#fff" stroke-width="2"/><path d="m83.67 12.57c8.76 4.43 12.28 15.12 7.85 23.89l-23.89 7.85c-8.76-4.43-12.28-15.12-7.85-23.89z" fill="#ef966a" stroke="#fff" stroke-width="2"/><path d="m183.98 28.44v22.38 22.37" fill="none" stroke="#808080" stroke-linecap="square" stroke-width="1.5"/><path d="m214.36 28.44v22.38 22.37" fill="none" stroke="#808080" stroke-linecap="square" stroke-width="1.5"/><path d="m183.98 50.82h30.38" fill="none" stroke="#808080" stroke-linecap="square" stroke-width="1.5"/><path d="m234.44 28.44v37.3c0 4.11 3.34 7.45 7.45 7.45h15.54c4.08 0 7.39-3.31 7.39-7.39v-37.36" fill="none" stroke="#808080" stroke-linecap="square" stroke-width="1.5"/><path d="m335.36 28.44v37.3c0 4.11 3.34 7.45 7.45 7.45h15.54c4.08 0 7.39-3.31 7.39-7.39v-37.36" fill="none" stroke="#808080" stroke-linecap="square" stroke-width="1.5"/><path d="m436.28 73.19v-41.58c0-3.41 4.66-4.4 6.05-1.29l18.29 40.99c1.39 3.11 6.05 2.12 6.05-1.29v-41.58" fill="none" stroke="#808080" stroke-linecap="square" stroke-width="1.5"/><path d="m133.64 28.44 25.2.13c4.51.02 6.75 5.48 3.56 8.67l-13.57 13.57-13.92 13.92c-3.21 3.21-.91 8.71 3.63 8.67l25.48-.21" fill="none" stroke="#808080" stroke-linecap="square" stroke-width="1.5"/><path d="m315.28 28.44h-23.5c-3.8 0-6.88 3.08-6.88 6.88v8.61c0 3.8 3.08 6.88 6.88 6.88h16.62c3.8 0 6.88 3.08 6.88 6.88v8.61c0 3.8-3.08 6.88-6.88 6.88h-23.5" fill="none" stroke="#808080" stroke-linecap="square" stroke-width="1.5"/><path d="m383.44 74.5 13.64-43.49c1.1-3.42 6.69-3.42 7.8 0l13.64 43.49" fill="none" stroke="#808080" stroke-linecap="square" stroke-width="1.5"/><path d="m387.61 60.32h26.74" fill="none" stroke="#808080" stroke-width="1.5"/></g><path d="m381.52 74.5h38.99v2.59h-38.99z" fill="#fff"/></svg>