<?xml version="1.0" encoding="utf-8"?>
<!-- Generator: Adobe Illustrator 23.0.2, SVG Export Plug-In . SVG Version: 6.00 Build 0)  -->
<svg version="1.1" id="图层_1" xmlns="http://www.w3.org/2000/svg" xmlns:xlink="http://www.w3.org/1999/xlink" x="0px" y="0px"
	 viewBox="0 0 473.31 90.24" style="enable-background:new 0 0 473.31 90.24;" xml:space="preserve">
<style type="text/css">
	.st0{fill:none;stroke:#FFB883;stroke-width:5;stroke-miterlimit:10;}
	.st1{fill:#ED7F4F;stroke:#FFFFFF;stroke-width:2;stroke-miterlimit:10;}
	.st2{fill:none;stroke:#666666;stroke-width:1.5;stroke-linecap:square;stroke-miterlimit:10;}
	.st3{fill:none;stroke:#666666;stroke-width:1.5;stroke-miterlimit:10;}
	.st4{fill:#FFFFFF;}
</style>
<g>
	<path class="st0" d="M66.21,74.35H34.45c-7.59,0-13.75-6.16-13.75-13.75V28.83c0-7.59,6.16-13.75,13.75-13.75h31.77
		c7.59,0,13.75,6.16,13.75,13.75V60.6C79.96,68.19,73.81,74.35,66.21,74.35z"/>
	<path class="st1" d="M32.66,2.51c6.94,6.94,6.94,18.2,0,25.14H7.52c-6.94-6.94-6.94-18.2,0-25.14H32.66z"/>
	<path class="st1" d="M33.27,61.78c6.94,6.94,6.94,18.2,0,25.14H8.13c-6.94-6.94-6.94-18.2,0-25.14H33.27z"/>
	<path class="st1" d="M33.27,36.63c6.94,6.94,6.94,18.2,0,25.14H8.13c-6.94-6.94-6.94-18.2,0-25.14H33.27z"/>
	<path class="st1" d="M92.53,62.67c6.94,6.94,6.94,18.2,0,25.14H67.39c-6.94-6.94-6.94-18.2,0-25.14H92.53z"/>
	<path class="st1" d="M85.98,15.08c8.76,4.43,12.28,15.12,7.85,23.89l-23.89,7.85c-8.76-4.43-12.28-15.12-7.85-23.89L85.98,15.08z"
		/>
</g>
<g>
	<g>
		<polyline class="st2" points="186.29,30.95 186.29,53.33 186.29,75.7 		"/>
		<polyline class="st2" points="216.67,30.95 216.67,53.33 216.67,75.7 		"/>
		<line class="st2" x1="186.29" y1="53.33" x2="216.67" y2="53.33"/>
	</g>
	<path class="st2" d="M236.75,30.95v37.3c0,4.11,3.34,7.45,7.45,7.45h15.54c4.08,0,7.39-3.31,7.39-7.39V30.95"/>
	<path class="st2" d="M337.67,30.95v37.3c0,4.11,3.34,7.45,7.45,7.45h15.54c4.08,0,7.39-3.31,7.39-7.39V30.95"/>
	<path class="st2" d="M438.59,75.7V34.12c0-3.41,4.66-4.4,6.05-1.29l18.29,40.99c1.39,3.11,6.05,2.12,6.05-1.29V30.95"/>
	<path class="st2" d="M135.94,30.95l25.2,0.13c4.51,0.02,6.75,5.48,3.56,8.67l-13.57,13.57l-13.92,13.92
		c-3.21,3.21-0.91,8.71,3.63,8.67l25.48-0.21"/>
	<path class="st2" d="M317.59,30.95h-23.5c-3.8,0-6.88,3.08-6.88,6.88v8.61c0,3.8,3.08,6.88,6.88,6.88h16.62
		c3.8,0,6.88,3.08,6.88,6.88v8.61c0,3.8-3.08,6.88-6.88,6.88h-23.5"/>
	<g>
		<g>
			<path class="st2" d="M385.75,77.01l13.64-43.49c1.1-3.42,6.69-3.42,7.8,0l13.64,43.49"/>
			<line class="st3" x1="389.91" y1="62.83" x2="416.66" y2="62.83"/>
		</g>
		<rect x="383.82" y="77.01" class="st4" width="38.99" height="2.59"/>
	</g>
</g>
</svg>
