<?xml version="1.0" encoding="utf-8"?>
<!-- Generator: Adobe Illustrator 23.0.2, SVG Export Plug-In . SVG Version: 6.00 Build 0)  -->
<svg version="1.1" id="图层_1" xmlns="http://www.w3.org/2000/svg" xmlns:xlink="http://www.w3.org/1999/xlink" x="0px" y="0px"
	 viewBox="0 0 298.08 163.86" style="enable-background:new 0 0 298.08 163.86;" xml:space="preserve">
<style type="text/css">
	.st0{fill:none;stroke:#FFB883;stroke-width:5;stroke-miterlimit:10;}
	.st1{fill:#ED7F4F;stroke:#FFFFFF;stroke-width:2;stroke-miterlimit:10;}
	.st2{fill:none;stroke:#666666;stroke-width:2;stroke-linecap:square;stroke-miterlimit:10;}
	.st3{fill:none;stroke:#666666;stroke-width:2;stroke-miterlimit:10;}
	.st4{fill:#FFFFFF;}
</style>
<g>
	<path class="st0" d="M165.4,74.09h-31.77c-7.59,0-13.75-6.16-13.75-13.75V28.57c0-7.59,6.16-13.75,13.75-13.75h31.77
		c7.59,0,13.75,6.16,13.75,13.75v31.77C179.15,67.93,173,74.09,165.4,74.09z"/>
	<path class="st1" d="M131.85,2.25c6.94,6.94,6.94,18.2,0,25.14H106.7c-6.94-6.94-6.94-18.2,0-25.14H131.85z"/>
	<path class="st1" d="M132.46,61.51c6.94,6.94,6.94,18.2,0,25.14h-25.14c-6.94-6.94-6.94-18.2,0-25.14H132.46z"/>
	<path class="st1" d="M132.46,36.37c6.94,6.94,6.94,18.2,0,25.14h-25.14c-6.94-6.94-6.94-18.2,0-25.14H132.46z"/>
	<path class="st1" d="M191.72,62.41c6.94,6.94,6.94,18.2,0,25.14h-25.14c-6.94-6.94-6.94-18.2,0-25.14H191.72z"/>
	<path class="st1" d="M185.17,14.82c8.76,4.43,12.28,15.12,7.85,23.89l-23.89,7.85c-8.76-4.43-12.28-15.12-7.85-23.89L185.17,14.82z
		"/>
</g>
<g>
	<g>
		<polyline class="st2" points="48.05,120.38 48.05,140.38 48.05,160.38 		"/>
		<polyline class="st2" points="75.2,120.38 75.2,140.38 75.2,160.38 		"/>
		<line class="st2" x1="48.05" y1="140.38" x2="75.2" y2="140.38"/>
	</g>
	<path class="st2" d="M92.45,120.38v33.34c0,3.68,2.98,6.66,6.66,6.66H113c3.65,0,6.61-2.96,6.61-6.61v-33.39"/>
	<path class="st2" d="M181.25,120.38v33.34c0,3.68,2.98,6.66,6.66,6.66h13.89c3.65,0,6.61-2.96,6.61-6.61v-33.39"/>
	<path class="st2" d="M267.73,160.38v-37.17c0-3.05,4.16-3.94,5.4-1.15l16.35,36.64c1.24,2.78,5.4,1.9,5.4-1.15v-37.17"/>
	<path class="st2" d="M3.74,120.38l22.52,0.12c4.03,0.02,6.04,4.9,3.19,7.75l-12.13,12.13L4.88,152.82
		c-2.87,2.87-0.81,7.78,3.25,7.75l22.77-0.19"/>
	<path class="st2" d="M164.01,120.38H143c-3.4,0-6.15,2.75-6.15,6.15v7.7c0,3.4,2.75,6.15,6.15,6.15h14.85
		c3.4,0,6.15,2.75,6.15,6.15v7.7c0,3.4-2.75,6.15-6.15,6.15h-21.01"/>
	<g>
		<g>
			<path class="st2" d="M224.47,161.55l10.56-38.87c0.86-3.05,5.18-3.05,6.04,0l10.56,38.87"/>
			<line class="st3" x1="227.69" y1="148.87" x2="248.4" y2="148.87"/>
		</g>
		<rect x="222.97" y="161.55" class="st4" width="30.19" height="2.31"/>
	</g>
</g>
</svg>
