<?xml version="1.0" encoding="utf-8"?>
<!-- Generator: Adobe Illustrator 21.0.0, SVG Export Plug-In . SVG Version: 6.00 Build 0)  -->
<svg version="1.1" id="图层_1" xmlns="http://www.w3.org/2000/svg" xmlns:xlink="http://www.w3.org/1999/xlink" x="0px" y="0px"
	 viewBox="0 0 541.6 113" style="enable-background:new 0 0 541.6 113;" xml:space="preserve">
<style type="text/css">
	.st0{fill:none;stroke:#EF7320;stroke-width:6.5;stroke-linecap:round;stroke-miterlimit:10;}
	.st1{fill:#FFE5D4;stroke:#EF7320;stroke-width:6.5;stroke-linecap:round;stroke-miterlimit:10;}
	.st2{fill:#FFE5D4;stroke:#EF7320;stroke-miterlimit:10;}
	.st3{fill:none;stroke:#4D4D4D;stroke-width:3;stroke-linecap:round;stroke-miterlimit:10;}
	.st4{fill:none;stroke:#4D4D4D;stroke-width:3;stroke-linejoin:round;stroke-miterlimit:10;}
	.st5{fill:none;stroke:#4D4D4D;stroke-width:3;stroke-miterlimit:10;}
</style>
<g>
	<line class="st0" x1="27.3" y1="19.3" x2="27.3" y2="89.4"/>
	<line class="st0" x1="93.9" y1="90.5" x2="23.8" y2="90.5"/>
	<line class="st0" x1="92" y1="89.9" x2="92" y2="28.3"/>
	<path class="st1" d="M92,28.3c0-3.9-3.2-7.1-7.1-7.1"/>
	<line class="st0" x1="84.9" y1="21.2" x2="28.7" y2="21.2"/>
	<g id="XMLID_5_">
		<g>
			<path class="st2" d="M14.3,10.1H41c2.4,3,3.9,6.8,3.9,11c0,4.5-1.7,8.7-4.6,11.8H14.5c-2.8-3.1-4.6-7.2-4.6-11.8
				c0-4.1,1.4-8,3.9-11C13.8,10.1,14.3,10.1,14.3,10.1z"/>
		</g>
		<g>
			<path class="st1" d="M41,10.1c2.4,3,3.9,6.8,3.9,11c0,4.5-1.7,8.7-4.6,11.8"/>
			<path class="st1" d="M14.5,32.9c-2.8-3.1-4.6-7.2-4.6-11.8c0-4.1,1.4-8,3.9-11"/>
			<polyline class="st1" points="41,10.1 14.3,10.1 13.8,10.1 			"/>
			<line class="st0" x1="14.5" y1="32.9" x2="40.3" y2="32.9"/>
		</g>
	</g>
	<g id="XMLID_2_">
		<g>
			<path class="st2" d="M14.3,78.8H41c2.4,3,3.9,6.8,3.9,11c0,4.5-1.7,8.7-4.6,11.8H14.5c-2.8-3.1-4.6-7.2-4.6-11.8
				c0-4.1,1.4-8,3.9-11H14.3z"/>
		</g>
		<g>
			<path class="st1" d="M41,78.8c2.4,3,3.9,6.8,3.9,11c0,4.5-1.7,8.7-4.6,11.8"/>
			<path class="st1" d="M14.5,101.6c-2.8-3.1-4.6-7.2-4.6-11.8c0-4.1,1.4-8,3.9-11"/>
			<polyline class="st1" points="41,78.8 14.3,78.8 13.8,78.8 			"/>
			<line class="st0" x1="14.5" y1="101.6" x2="40.3" y2="101.6"/>
		</g>
	</g>
	<g id="XMLID_1_">
		<g>
			<path class="st2" d="M78.5,78.8h26.7c2.4,3,3.9,6.8,3.9,11c0,4.5-1.7,8.7-4.6,11.8H78.7c-2.8-3.1-4.6-7.2-4.6-11.8
				c0-4.1,1.4-8,3.9-11H78.5z"/>
		</g>
		<g>
			<path class="st1" d="M105.2,78.8c2.4,3,3.9,6.8,3.9,11c0,4.5-1.7,8.7-4.6,11.8"/>
			<path class="st1" d="M78.7,101.6c-2.8-3.1-4.6-7.2-4.6-11.8c0-4.1,1.4-8,3.9-11"/>
			<polyline class="st1" points="105.2,78.8 78.5,78.8 78.1,78.8 			"/>
			<line class="st0" x1="78.7" y1="101.6" x2="104.5" y2="101.6"/>
		</g>
	</g>
	<g id="XMLID_11_">
		<g>
			<path class="st2" d="M14.3,55.7H41c2.4,3,3.9,6.8,3.9,11c0,4.5-1.7,8.7-4.6,11.8H14.5c-2.8-3.1-4.6-7.2-4.6-11.8
				c0-4.1,1.4-8,3.9-11C13.8,55.7,14.3,55.7,14.3,55.7z"/>
		</g>
		<g>
			<path class="st1" d="M41,55.7c2.4,3,3.9,6.8,3.9,11c0,4.5-1.7,8.7-4.6,11.8"/>
			<path class="st1" d="M14.5,78.5c-2.8-3.1-4.6-7.2-4.6-11.8c0-4.1,1.4-8,3.9-11"/>
			<polyline class="st1" points="41,55.7 14.3,55.7 13.8,55.7 			"/>
			<line class="st0" x1="14.5" y1="78.5" x2="40.3" y2="78.5"/>
		</g>
	</g>
	<g id="XMLID_3_">
		<g>
			<path class="st2" d="M78.9,32.9h26.7c2.4,3,3.9,6.8,3.9,11c0,4.5-1.7,8.7-4.6,11.8H79.1c-2.8-3.1-4.6-7.2-4.6-11.8
				c0-4.1,1.4-8,3.9-11C78.4,32.9,78.9,32.9,78.9,32.9z"/>
		</g>
		<g>
			<path class="st1" d="M105.6,32.9c2.4,3,3.9,6.8,3.9,11c0,4.5-1.7,8.7-4.6,11.8"/>
			<path class="st1" d="M79.1,55.7c-2.8-3.1-4.6-7.2-4.6-11.8c0-4.1,1.4-8,3.9-11"/>
			<polyline class="st1" points="105.6,32.9 78.9,32.9 78.4,32.9 			"/>
			<line class="st0" x1="79.1" y1="55.7" x2="104.9" y2="55.7"/>
		</g>
	</g>
</g>
<g>
	<g>
		<line class="st3" x1="229.5" y1="40.1" x2="229.5" y2="86.6"/>
		<line class="st3" x1="261.5" y1="40.1" x2="261.5" y2="86.6"/>
		<line class="st4" x1="229.5" y1="60.7" x2="261.5" y2="60.7"/>
	</g>
	<path class="st3" d="M283.6,40.1v37.8c0,5.4,2.8,8.5,6.1,8.5c0,0,16.4,0,21,0c3.9,0,6.1-3.3,6.1-8.5s0-37.8,0-37.8"/>
	<path class="st3" d="M370.1,40.1h-27.5c-2.9,0-5.1,1.3-5.1,5.1s-0.2,10.2,0,13.1c0.2,2.9,2,3.9,3.9,3.9c2,0,23.1,0,25.9,0
		s4.6,0.8,4.6,3.9c0,2.9,0,12.5,0,15.4c0,3.1-2.6,5.1-5.1,5.1c-2.5,0-28.2,0-28.2,0"/>
	<g>
		<path class="st3" d="M443.2,86.4c0,0,8.8-28.7,11.8-38.7c2.8-10,12-10.3,14.9-0.2C473,57.9,482,86.4,482,86.4"/>
		<line class="st5" x1="448.6" y1="69.4" x2="476.3" y2="69.4"/>
	</g>
	<path class="st3" d="M500.7,86.4V45.1c0-5.4,4.9-7.7,7.9-1.1c2.9,6.4,14.1,31.5,17.2,37.7c3.1,6.4,9.3,4.8,9.3-1.1V40.2"/>
	<path class="st3" d="M392.1,40.1v37.8c0,5.4,2.8,8.5,6.1,8.5c0,0,16.4,0,21,0c3.9,0,6.1-3.3,6.1-8.5s0-37.8,0-37.8"/>
	<path class="st3" d="M176.7,40.1c0,0,18.9,0,26,0c7.1,0,8.8,5.3,3.4,10.3c-5.3,5-22.9,21.9-27.3,26.2c-4.4,4.3-3.6,10,4.1,10
		s26.8,0,26.8,0"/>
</g>
</svg>
