<?xml version="1.0" encoding="utf-8"?>
<!-- Generator: Adobe Illustrator 23.0.2, SVG Export Plug-In . SVG Version: 6.00 Build 0)  -->
<svg version="1.1" id="图层_1" xmlns="http://www.w3.org/2000/svg" xmlns:xlink="http://www.w3.org/1999/xlink" x="0px" y="0px"
	 viewBox="0 0 253.56 165.38" style="enable-background:new 0 0 253.56 165.38;" xml:space="preserve">
<style type="text/css">
	.st0{fill:none;stroke:#FFD5B0;stroke-width:5;stroke-miterlimit:10;}
	.st1{fill:#EF966A;stroke:#FFFFFF;stroke-width:2;stroke-miterlimit:10;}
	.st2{fill:none;stroke:#808080;stroke-width:1.5;stroke-linecap:square;stroke-miterlimit:10;}
	.st3{fill:none;stroke:#808080;stroke-width:1.5;stroke-miterlimit:10;}
	.st4{fill:#FFFFFF;}
</style>
<g>
	<path class="st0" d="M143.02,73.46h-31.77c-7.59,0-13.75-6.16-13.75-13.75V27.95c0-7.59,6.16-13.75,13.75-13.75h31.77
		c7.59,0,13.75,6.16,13.75,13.75v31.77C156.76,67.31,150.61,73.46,143.02,73.46z"/>
	<path class="st1" d="M109.46,1.63c6.94,6.94,6.94,18.2,0,25.14H84.32c-6.94-6.94-6.94-18.2,0-25.14H109.46z"/>
	<path class="st1" d="M110.07,60.89c6.94,6.94,6.94,18.2,0,25.14H84.93c-6.94-6.94-6.94-18.2,0-25.14H110.07z"/>
	<path class="st1" d="M110.07,35.75c6.94,6.94,6.94,18.2,0,25.14H84.93c-6.94-6.94-6.94-18.2,0-25.14H110.07z"/>
	<path class="st1" d="M169.34,61.79c6.94,6.94,6.94,18.2,0,25.14h-25.14c-6.94-6.94-6.94-18.2,0-25.14H169.34z"/>
	<path class="st1" d="M162.78,14.2c8.76,4.43,12.28,15.12,7.85,23.89l-23.89,7.85c-8.76-4.43-12.28-15.12-7.85-23.89L162.78,14.2z"
		/>
</g>
<g>
	<g>
		<polyline class="st2" points="41.71,129.7 41.71,146.11 41.71,162.52 		"/>
		<polyline class="st2" points="63.99,129.7 63.99,146.11 63.99,162.52 		"/>
		<line class="st2" x1="41.71" y1="146.11" x2="63.99" y2="146.11"/>
	</g>
	<path class="st2" d="M78.72,129.7v27.36c0,3.02,2.45,5.46,5.46,5.46h11.4c2.99,0,5.42-2.43,5.42-5.42v-27.4"/>
	<path class="st2" d="M152.73,129.7v27.36c0,3.02,2.45,5.46,5.46,5.46h11.4c2.99,0,5.42-2.43,5.42-5.42v-27.4"/>
	<path class="st2" d="M226.75,162.52v-30.5c0-2.5,3.42-3.23,4.43-0.94l13.41,30.06c1.02,2.28,4.43,1.56,4.43-0.94v-30.5"/>
	<path class="st2" d="M4.79,129.7l18.48,0.1c3.31,0.02,4.95,4.02,2.61,6.36l-9.95,9.95L5.72,156.32c-2.36,2.36-0.67,6.39,2.66,6.36
		l18.69-0.16"/>
	<path class="st2" d="M138.01,129.7h-17.24c-2.79,0-5.05,2.26-5.05,5.05v6.32c0,2.79,2.26,5.05,5.05,5.05h12.19
		c2.79,0,5.05,2.26,5.05,5.05v6.32c0,2.79-2.26,5.05-5.05,5.05h-17.24"/>
	<g>
		<g>
			<path class="st2" d="M188,163.49l10-31.9c0.81-2.51,4.91-2.51,5.72,0l10,31.9"/>
			<line class="st3" x1="191.05" y1="153.08" x2="210.67" y2="153.08"/>
		</g>
		<rect x="186.59" y="163.49" class="st4" width="28.59" height="1.9"/>
	</g>
</g>
</svg>
