<?xml version="1.0" encoding="utf-8"?>
<!-- Generator: Adobe Illustrator 21.0.0, SVG Export Plug-In . SVG Version: 6.00 Build 0)  -->
<svg version="1.1" id="图层_1" xmlns="http://www.w3.org/2000/svg" xmlns:xlink="http://www.w3.org/1999/xlink" x="0px" y="0px"
	 viewBox="0 0 236 179.9" style="enable-background:new 0 0 236 179.9;" xml:space="preserve">
<style type="text/css">
	.st0{fill:none;stroke:#EF7320;stroke-width:6.5;stroke-linecap:round;stroke-miterlimit:10;}
	.st1{fill:#FFE5D4;stroke:#EF7320;stroke-width:6.5;stroke-linecap:round;stroke-miterlimit:10;}
	.st2{fill:#FFE5D4;stroke:#EF7320;stroke-miterlimit:10;}
	.st3{fill:none;stroke:#4D4D4D;stroke-width:2;stroke-linecap:round;stroke-miterlimit:10;}
	.st4{fill:none;stroke:#4D4D4D;stroke-width:2;stroke-linejoin:round;stroke-miterlimit:10;}
	.st5{fill:none;stroke:#4D4D4D;stroke-width:2;stroke-miterlimit:10;}
</style>
<g>
	<line class="st0" x1="85.8" y1="14.5" x2="85.8" y2="84.6"/>
	<line class="st0" x1="152.4" y1="85.7" x2="82.3" y2="85.7"/>
	<line class="st0" x1="150.5" y1="85.1" x2="150.5" y2="23.5"/>
	<path class="st1" d="M150.5,23.5c0-3.9-3.2-7.1-7.1-7.1"/>
	<line class="st0" x1="143.4" y1="16.4" x2="87.2" y2="16.4"/>
	<g id="XMLID_5_">
		<g>
			<path class="st2" d="M72.8,5.3h26.7c2.4,3,3.9,6.8,3.9,11c0,4.5-1.7,8.7-4.6,11.8H73c-2.8-3.1-4.6-7.2-4.6-11.8
				c0-4.1,1.4-8,3.9-11C72.3,5.3,72.8,5.3,72.8,5.3z"/>
		</g>
		<g>
			<path class="st1" d="M99.5,5.3c2.4,3,3.9,6.8,3.9,11c0,4.5-1.7,8.7-4.6,11.8"/>
			<path class="st1" d="M73,28.1c-2.8-3.1-4.6-7.2-4.6-11.8c0-4.1,1.4-8,3.9-11"/>
			<polyline class="st1" points="99.5,5.3 72.8,5.3 72.3,5.3 			"/>
			<line class="st0" x1="73" y1="28.1" x2="98.8" y2="28.1"/>
		</g>
	</g>
	<g id="XMLID_2_">
		<g>
			<path class="st2" d="M72.8,74h26.7c2.4,3,3.9,6.8,3.9,11c0,4.5-1.7,8.7-4.6,11.8H73c-2.8-3.1-4.6-7.2-4.6-11.8
				c0-4.1,1.4-8,3.9-11H72.8z"/>
		</g>
		<g>
			<path class="st1" d="M99.5,74c2.4,3,3.9,6.8,3.9,11c0,4.5-1.7,8.7-4.6,11.8"/>
			<path class="st1" d="M73,96.8c-2.8-3.1-4.6-7.2-4.6-11.8c0-4.1,1.4-8,3.9-11"/>
			<polyline class="st1" points="99.5,74 72.8,74 72.3,74 			"/>
			<line class="st0" x1="73" y1="96.8" x2="98.8" y2="96.8"/>
		</g>
	</g>
	<g id="XMLID_1_">
		<g>
			<path class="st2" d="M137,74h26.7c2.4,3,3.9,6.8,3.9,11c0,4.5-1.7,8.7-4.6,11.8h-25.8c-2.8-3.1-4.6-7.2-4.6-11.8
				c0-4.1,1.4-8,3.9-11H137z"/>
		</g>
		<g>
			<path class="st1" d="M163.7,74c2.4,3,3.9,6.8,3.9,11c0,4.5-1.7,8.7-4.6,11.8"/>
			<path class="st1" d="M137.2,96.8c-2.8-3.1-4.6-7.2-4.6-11.8c0-4.1,1.4-8,3.9-11"/>
			<polyline class="st1" points="163.7,74 137,74 136.6,74 			"/>
			<line class="st0" x1="137.2" y1="96.8" x2="163" y2="96.8"/>
		</g>
	</g>
	<g id="XMLID_11_">
		<g>
			<path class="st2" d="M72.8,50.9h26.7c2.4,3,3.9,6.8,3.9,11c0,4.5-1.7,8.7-4.6,11.8H73c-2.8-3.1-4.6-7.2-4.6-11.8
				c0-4.1,1.4-8,3.9-11C72.3,50.9,72.8,50.9,72.8,50.9z"/>
		</g>
		<g>
			<path class="st1" d="M99.5,50.9c2.4,3,3.9,6.8,3.9,11c0,4.5-1.7,8.7-4.6,11.8"/>
			<path class="st1" d="M73,73.7c-2.8-3.1-4.6-7.2-4.6-11.8c0-4.1,1.4-8,3.9-11"/>
			<polyline class="st1" points="99.5,50.9 72.8,50.9 72.3,50.9 			"/>
			<line class="st0" x1="73" y1="73.7" x2="98.8" y2="73.7"/>
		</g>
	</g>
	<g id="XMLID_3_">
		<g>
			<path class="st2" d="M137.4,28.1h26.7c2.4,3,3.9,6.8,3.9,11c0,4.5-1.7,8.7-4.6,11.8h-25.8c-2.8-3.1-4.6-7.2-4.6-11.8
				c0-4.1,1.4-8,3.9-11C136.9,28.1,137.4,28.1,137.4,28.1z"/>
		</g>
		<g>
			<path class="st1" d="M164.1,28.1c2.4,3,3.9,6.8,3.9,11c0,4.5-1.7,8.7-4.6,11.8"/>
			<path class="st1" d="M137.6,50.9c-2.8-3.1-4.6-7.2-4.6-11.8c0-4.1,1.4-8,3.9-11"/>
			<polyline class="st1" points="164.1,28.1 137.4,28.1 136.9,28.1 			"/>
			<line class="st0" x1="137.6" y1="50.9" x2="163.4" y2="50.9"/>
		</g>
	</g>
</g>
<g>
	<g>
		<line class="st3" x1="40.4" y1="134.5" x2="40.4" y2="162.9"/>
		<line class="st3" x1="59.9" y1="134.5" x2="59.9" y2="162.9"/>
		<line class="st4" x1="40.4" y1="147.1" x2="59.9" y2="147.1"/>
	</g>
	<path class="st3" d="M73.4,134.5v23.1c0,3.3,1.7,5.2,3.7,5.2c0,0,10,0,12.8,0c2.4,0,3.7-2,3.7-5.2s0-23.1,0-23.1"/>
	<path class="st3" d="M126.2,134.5h-16.8c-1.8,0-3.1,0.8-3.1,3.1s-0.1,6.2,0,8s1.2,2.4,2.4,2.4c1.2,0,14.1,0,15.8,0
		c1.7,0,2.8,0.5,2.8,2.4c0,1.8,0,7.6,0,9.4c0,1.9-1.6,3.1-3.1,3.1s-17.2,0-17.2,0"/>
	<g>
		<path class="st3" d="M170.8,162.8c0,0,5.4-17.5,7.2-23.6c1.7-6.1,7.3-6.3,9.1-0.1c1.9,6.3,7.4,23.7,7.4,23.7"/>
		<line class="st5" x1="174.1" y1="152.4" x2="191" y2="152.4"/>
	</g>
	<path class="st3" d="M205.9,162.8v-25.2c0-3.3,3-4.7,4.8-0.7c1.8,3.9,8.6,19.2,10.5,23c1.9,3.9,5.7,2.9,5.7-0.7v-24.6"/>
	<path class="st3" d="M139.6,134.5v23.1c0,3.3,1.7,5.2,3.7,5.2c0,0,10,0,12.8,0c2.4,0,3.7-2,3.7-5.2s0-23.1,0-23.1"/>
	<path class="st3" d="M8.1,134.5c0,0,11.5,0,15.8,0s5.3,3.2,2.1,6.3s-14,13.3-16.6,16c-2.7,2.6-2.2,6.1,2.5,6.1s16.4,0,16.4,0"/>
</g>
</svg>
